<?xml version="1.0" encoding="utf-8"?>
<!-- Generator: Adobe Illustrator 19.0.0, SVG Export Plug-In . SVG Version: 6.00 Build 0)  -->
<svg version="1.1" baseProfile="tiny" id="Capa_1" xmlns="http://www.w3.org/2000/svg" xmlns:xlink="http://www.w3.org/1999/xlink"
	 x="0px" y="0px" viewBox="0 0 31.6 28.9" xml:space="preserve">
<g id="XMLID_272_">
	<g id="XMLID_164_">
		<path id="XMLID_274_" d="M1.9,8.4h0.9V14H1.9C1.4,14,1,13.6,1,13.1V9.4C1,8.8,1.4,8.4,1.9,8.4L1.9,8.4z M29.8,8.4h-0.9V14h0.9
			c0.5,0,0.9-0.4,0.9-0.9V9.4C30.7,8.8,30.3,8.4,29.8,8.4L29.8,8.4z M27,6.6v16.7c0,1-0.8,1.9-1.9,1.9V27c0,1-0.8,1.9-1.9,1.9h-1.9
			c-1,0-1.9-0.8-1.9-1.9v-1.9h-7.4V27c0,1-0.8,1.9-1.9,1.9H8.4c-1,0-1.9-0.8-1.9-1.9v-1.9c-1,0-1.9-0.8-1.9-1.9V6.6
			C4.7,3.5,7.2,1,10.3,1h11.1C24.5,1,27,3.5,27,6.6L27,6.6z M12.1,4.7h7.4V2.9h-7.4V4.7z M10.3,21.4c0-1-0.8-1.9-1.9-1.9
			c-1,0-1.9,0.8-1.9,1.9c0,1,0.8,1.9,1.9,1.9C9.4,23.3,10.3,22.5,10.3,21.4L10.3,21.4z M25.1,21.4c0-1-0.8-1.9-1.9-1.9
			c-1,0-1.9,0.8-1.9,1.9c0,1,0.8,1.9,1.9,1.9C24.3,23.3,25.1,22.5,25.1,21.4L25.1,21.4z M25.1,6.6H6.5v11.1h18.6V6.6z M25.1,6.6"/>
	</g>
</g>
</svg>
