<?xml version="1.0" encoding="utf-8"?>
<!-- Generator: Adobe Illustrator 19.0.0, SVG Export Plug-In . SVG Version: 6.00 Build 0)  -->
<svg version="1.1" baseProfile="tiny" id="Capa_1" xmlns="http://www.w3.org/2000/svg" xmlns:xlink="http://www.w3.org/1999/xlink"
	 x="0px" y="0px" viewBox="0 0 295.6 66.9" xml:space="preserve">
<g id="XMLID_52_">
	<g id="XMLID_53_">
		<g id="XMLID_54_">
			<polyline id="XMLID_55_" fill="#FFED00" stroke="#FFED00" stroke-miterlimit="10" points="122.6,60.9 89.5,60.8 84.1,54.2 
				119.6,54.2 118.6,52 57,51.9 51.6,45.3 115.5,45.3 114.4,42.9 42,42.9 36.6,36.4 111.5,36.4 110.4,34 26.2,34 20.8,27.5 
				107.4,27.5 106.2,24.9 10.6,24.9 5.5,18.3 112.1,18.3 122.6,41.5 124,61.2 			"/>
		</g>
		<polygon id="XMLID_56_" fill="#312783" stroke="#312783" stroke-miterlimit="10" points="36,36 111.3,36 114.4,43.1 41.5,43.1 		
			"/>
		<polygon id="XMLID_57_" fill="#312783" stroke="#312783" stroke-miterlimit="10" points="51,45 115.2,45 118.4,52.4 57,52.4 		"/>
		<polygon id="XMLID_58_" fill="#E30613" stroke="#E30613" stroke-miterlimit="10" points="83.5,54 119.1,54 122.6,61.2 89.2,61.2 
					"/>
	</g>
	<g id="XMLID_59_">
		<g id="XMLID_60_">
			<polyline id="XMLID_61_" fill="#FFED00" stroke="#FFED00" stroke-miterlimit="10" points="174.5,60.9 207.6,60.8 212.9,54.2 
				177.5,54.2 178.5,52 240,51.9 245.5,45.3 181.6,45.3 182.7,42.9 255.1,42.9 260.5,36.4 185.6,36.4 186.7,34 270.9,34 276.2,27.5 
				189.7,27.5 190.8,24.9 286.4,24.9 291.5,18.3 185,18.3 174.5,41.5 173.1,61.2 			"/>
		</g>
		<polygon id="XMLID_62_" fill="#312783" stroke="#312783" stroke-miterlimit="10" points="261,36 185.8,36 182.7,43.1 255.5,43.1 
					"/>
		<polygon id="XMLID_63_" fill="#312783" stroke="#312783" stroke-miterlimit="10" points="246,45 181.9,45 178.7,52.4 240.1,52.4 
					"/>
		<polygon id="XMLID_64_" fill="#E30613" stroke="#E30613" stroke-miterlimit="10" points="213.6,54 178,54 174.5,61.2 207.8,61.2 
					"/>
	</g>
	
		<ellipse id="XMLID_65_" fill="#FFFFFF" stroke="#312783" stroke-width="8" stroke-miterlimit="10" cx="148.5" cy="39.3" rx="28.7" ry="24.2"/>
	<path id="XMLID_66_" fill="#FFFFFF" stroke="#E30613" stroke-width="8" stroke-miterlimit="10" d="M134.6,60.5
		c-5.3-2.4-9.5-6.2-12.1-10.8"/>
	<path id="XMLID_67_" fill="#FFFFFF" stroke="#E30613" stroke-width="8" stroke-miterlimit="10" d="M163.7,59.9"/>
	<path id="XMLID_68_" fill="#FFFFFF" stroke="#E30613" stroke-width="8" stroke-miterlimit="10" d="M173,52c-1.5,2-3.2,3.7-5.1,5.2"
		/>
	<g id="XMLID_119_">
		<path id="XMLID_120_" fill="#312783" d="M131.3,12.4c-0.7-0.3-1.1-0.8-1.3-1.5c-0.2-0.7-0.2-1.4,0.1-2c0.3-0.7,0.8-1.1,1.5-1.3
			c0.6-0.2,1.3-0.2,1.9,0.1c0.1,0,0.1,0.1,0.1,0.2l-0.3,0.6c0,0.1-0.1,0.1-0.2,0.1c-0.4-0.2-0.8-0.2-1.2,0c-0.4,0.1-0.7,0.4-0.9,0.8
			c-0.2,0.4-0.2,0.8-0.1,1.3c0.2,0.4,0.4,0.8,0.8,1c0.4,0.2,0.8,0.2,1.3,0.1c0.4-0.1,0.7-0.4,0.9-0.8c0-0.1,0.1-0.1,0.2-0.1l0.6,0.3
			c0,0,0.1,0,0.1,0.1c0,0,0,0.1,0,0.1c-0.3,0.6-0.8,1-1.4,1.2C132.6,12.8,132,12.7,131.3,12.4z"/>
		<path id="XMLID_122_" fill="#312783" d="M136,10.9c-0.6-0.4-1-0.9-1.1-1.7c-0.2-0.7,0-1.4,0.3-2c0.4-0.6,0.9-1,1.7-1.1
			c0.7-0.2,1.4,0,2,0.4c0.6,0.4,1,0.9,1.1,1.7c0.2,0.7,0,1.4-0.4,2c-0.4,0.6-0.9,1-1.7,1.1C137.3,11.4,136.6,11.3,136,10.9z
			 M136,7.8c-0.3,0.4-0.3,0.8-0.2,1.3c0.1,0.5,0.3,0.8,0.7,1c0.4,0.2,0.8,0.3,1.3,0.2c0.5-0.1,0.8-0.3,1.1-0.7s0.3-0.8,0.2-1.3
			c-0.1-0.5-0.3-0.8-0.7-1.1c-0.4-0.3-0.8-0.3-1.3-0.2C136.6,7.2,136.3,7.4,136,7.8z"/>
		<path id="XMLID_125_" fill="#312783" d="M141,10.4l0.4-5c0-0.1,0-0.1,0.1-0.1l0.1,0c0.1,0,0.1,0,0.1,0.1l1.9,3.3l0,0L145,5
			C145,5,145,5,145.1,5l0.1,0c0.1,0,0.1,0,0.1,0.1l1.3,4.8c0,0,0,0.1,0,0.1c0,0-0.1,0.1-0.1,0.1l-0.7,0.1c-0.1,0-0.1,0-0.1-0.1
			L145,7.3l0,0l-1,3c0,0.1-0.1,0.1-0.1,0.1l-0.1,0c-0.1,0-0.1,0-0.1-0.1l-1.6-2.7l0,0l-0.2,2.8c0,0,0,0.1,0,0.1c0,0-0.1,0-0.1,0
			l-0.7,0.1C141,10.5,141,10.5,141,10.4z"/>
		<path id="XMLID_127_" fill="#312783" d="M147.6,9.9l0-4.8c0,0,0-0.1,0-0.1c0,0,0.1,0,0.1,0l1.7,0c0.4,0,0.8,0.1,1.2,0.5
			c0.3,0.3,0.5,0.7,0.5,1.1c0,0.5-0.2,0.8-0.5,1.2c-0.3,0.3-0.7,0.5-1.1,0.5l-0.9,0l0,1.7c0,0,0,0.1,0,0.1c0,0-0.1,0-0.1,0l-0.7,0
			C147.7,10,147.6,10,147.6,9.9C147.6,10,147.6,9.9,147.6,9.9z M148.5,7.3l0.8,0c0.2,0,0.4-0.1,0.5-0.2c0.1-0.1,0.2-0.3,0.2-0.5
			c0-0.2-0.1-0.4-0.2-0.5s-0.3-0.2-0.5-0.2l-0.8,0L148.5,7.3z"/>
		<path id="XMLID_130_" fill="#312783" d="M151,10c-0.1,0-0.1,0-0.1-0.1c0,0,0-0.1,0-0.1l2.6-4.7c0-0.1,0.1-0.1,0.1-0.1l0.1,0
			c0.1,0,0.1,0,0.1,0.1l1.9,5.1c0,0.1,0,0.1,0,0.1c0,0-0.1,0.1-0.1,0l-0.6,0c-0.1,0-0.2-0.1-0.2-0.2l-0.3-0.8l-2.2-0.2l-0.4,0.8
			c0,0.1-0.1,0.1-0.2,0.1L151,10z M152.7,8.4l1.5,0.1l-0.6-1.7l0,0L152.7,8.4z"/>
		<path id="XMLID_133_" fill="#312783" d="M156.3,10.3l0.8-4.8c0,0,0-0.1,0.1-0.1c0,0,0.1,0,0.1,0l0.2,0l2.4,3.7l0,0l0.5-3
			c0,0,0-0.1,0.1-0.1c0,0,0.1,0,0.1,0l0.7,0.1c0,0,0.1,0,0.1,0.1c0,0,0,0.1,0,0.1l-0.8,4.8c0,0,0,0.1-0.1,0.1c0,0-0.1,0-0.1,0
			l-0.2,0l-2.4-3.8l0,0l-0.5,3.1c0,0,0,0.1-0.1,0.1c0,0-0.1,0-0.1,0l-0.7-0.1C156.3,10.4,156.3,10.4,156.3,10.3
			C156.3,10.4,156.2,10.3,156.3,10.3z M158.5,5l-0.2-0.2c0-0.1-0.1-0.1,0-0.2c0.1-0.1,0.1-0.1,0.1-0.1c0,0,0.1-0.1,0.2-0.2
			c0.1-0.1,0.2-0.1,0.3-0.2c0.1,0,0.2,0,0.3,0c0.1,0,0.3,0.1,0.4,0.3c0.1,0.2,0.2,0.2,0.3,0.3c0.1,0,0.1,0,0.2,0
			c0.1,0,0.1-0.1,0.1-0.1c0,0,0.1-0.1,0.1-0.1c0,0,0.1,0,0.1,0l0.2,0.2c0.1,0.1,0,0.1,0,0.2c-0.2,0.2-0.4,0.4-0.5,0.4
			c-0.1,0-0.2,0-0.3,0c-0.1,0-0.3-0.1-0.4-0.3c-0.1-0.2-0.2-0.2-0.3-0.3c-0.1,0-0.1,0-0.2,0.1c-0.1,0.1-0.1,0.1-0.2,0.2
			C158.6,5,158.5,5,158.5,5z"/>
		<path id="XMLID_136_" fill="#312783" d="M161.7,11.4l1.2-4.7c0,0,0-0.1,0.1-0.1c0,0,0.1,0,0.1,0l0.7,0.2c0,0,0.1,0,0.1,0.1
			c0,0,0,0.1,0,0.1l-1.2,4.7c0,0,0,0.1-0.1,0.1c0,0-0.1,0-0.1,0l-0.7-0.2c0,0-0.1,0-0.1-0.1C161.7,11.4,161.7,11.4,161.7,11.4z"/>
		<path id="XMLID_138_" fill="#312783" d="M163.3,11.9C163.2,11.8,163.2,11.8,163.3,11.9c-0.1-0.1-0.1-0.2-0.1-0.2l3.7-3.9
			c0,0,0.1-0.1,0.1,0l0.1,0c0.1,0,0.1,0.1,0.1,0.1l0.5,5.4c0,0.1,0,0.1,0,0.1c0,0-0.1,0-0.1,0l-0.6-0.2c-0.1,0-0.1-0.1-0.2-0.2
			l-0.1-0.9l-2.1-0.7l-0.6,0.6c-0.1,0.1-0.2,0.1-0.2,0.1L163.3,11.9z M165.3,10.7l1.4,0.5l-0.2-1.8l0,0L165.3,10.7z"/>
	</g>
	<g id="XMLID_69_">
		<path id="XMLID_70_" fill="#312783" d="M127,35.6v-4.2c0,0,0-0.1,0-0.1c0,0,0.1,0,0.1,0h2.6c0,0,0.1,0,0.1,0c0,0,0,0.1,0,0.1V32
			c0,0,0,0.1,0,0.1c0,0-0.1,0-0.1,0h-1.9v1h1.6c0,0,0.1,0,0.1,0c0,0,0,0.1,0,0.1v0.5c0,0,0,0.1,0,0.1c0,0-0.1,0-0.1,0h-1.6V35h1.9
			c0,0,0.1,0,0.1,0c0,0,0,0.1,0,0.1v0.5c0,0,0,0.1,0,0.1c0,0-0.1,0-0.1,0h-2.6C127.1,35.7,127.1,35.7,127,35.6
			C127,35.7,127,35.7,127,35.6z"/>
		<path id="XMLID_73_" fill="#312783" d="M131.1,35.2c-0.4-0.4-0.7-1-0.7-1.6s0.2-1.2,0.7-1.6c0.4-0.4,1-0.7,1.6-0.7
			c0.6,0,1.1,0.2,1.5,0.6c0.1,0.1,0.1,0.1,0,0.2l-0.4,0.4c-0.1,0.1-0.1,0.1-0.2,0c-0.3-0.2-0.6-0.4-1-0.4c-0.4,0-0.7,0.1-1,0.4
			c-0.3,0.3-0.4,0.6-0.4,1c0,0.4,0.1,0.7,0.4,1c0.3,0.3,0.6,0.4,1,0.4c0.4,0,0.7-0.1,1-0.4c0.1-0.1,0.1-0.1,0.2,0l0.4,0.4
			c0,0,0,0.1,0,0.1c0,0,0,0.1,0,0.1c-0.4,0.4-0.9,0.6-1.5,0.6C132.1,35.8,131.5,35.6,131.1,35.2z"/>
		<path id="XMLID_75_" fill="#312783" d="M135,34.1v-2.6c0,0,0-0.1,0-0.1c0,0,0.1,0,0.1,0h0.6c0,0,0.1,0,0.1,0c0,0,0,0.1,0,0.1V34
			c0,0.3,0.1,0.5,0.3,0.7c0.2,0.2,0.4,0.3,0.7,0.3s0.5-0.1,0.7-0.3c0.2-0.2,0.3-0.4,0.3-0.7v-2.6c0,0,0-0.1,0-0.1s0.1,0,0.1,0h0.6
			c0,0,0.1,0,0.1,0c0,0,0,0.1,0,0.1v2.6c0,0.5-0.2,0.9-0.5,1.2c-0.3,0.3-0.8,0.5-1.3,0.5c-0.5,0-0.9-0.2-1.3-0.5
			C135.2,35,135,34.6,135,34.1z"/>
		<path id="XMLID_77_" fill="#312783" d="M139.1,35.7c0,0-0.1,0-0.1-0.1c0,0,0-0.1,0-0.1l2-4.3c0,0,0.1-0.1,0.1-0.1h0.1
			c0.1,0,0.1,0,0.1,0.1l2,4.3c0,0,0,0.1,0,0.1c0,0-0.1,0.1-0.1,0.1h-0.6c-0.1,0-0.1,0-0.2-0.1l-0.3-0.7h-1.9l-0.3,0.7
			c0,0.1-0.1,0.1-0.2,0.1H139.1z M140.4,34.2h1.3l-0.6-1.4h0L140.4,34.2z"/>
		<path id="XMLID_80_" fill="#312783" d="M144.1,35.6v-3.6h-1c0,0-0.1,0-0.1,0c0,0,0-0.1,0-0.1v-0.5c0,0,0-0.1,0-0.1s0.1,0,0.1,0
			h2.8c0,0,0.1,0,0.1,0c0,0,0,0.1,0,0.1V32c0,0,0,0.1,0,0.1c0,0-0.1,0-0.1,0h-1v3.6c0,0,0,0.1,0,0.1c0,0-0.1,0-0.1,0h-0.6
			C144.2,35.7,144.2,35.7,144.1,35.6C144.1,35.7,144.1,35.7,144.1,35.6z"/>
		<path id="XMLID_82_" fill="#312783" d="M147,35.2c-0.4-0.4-0.7-1-0.7-1.6s0.2-1.2,0.7-1.6c0.4-0.4,1-0.7,1.6-0.7s1.2,0.2,1.6,0.7
			c0.4,0.4,0.7,1,0.7,1.6s-0.2,1.2-0.7,1.6c-0.4,0.4-1,0.7-1.6,0.7S147.4,35.6,147,35.2z M147.6,32.5c-0.3,0.3-0.4,0.6-0.4,1
			s0.1,0.7,0.4,1c0.3,0.3,0.6,0.4,1,0.4c0.4,0,0.7-0.1,1-0.4c0.3-0.3,0.4-0.6,0.4-1c0-0.4-0.1-0.7-0.4-1c-0.3-0.3-0.6-0.4-1-0.4
			S147.9,32.2,147.6,32.5z"/>
		<path id="XMLID_85_" fill="#312783" d="M151.7,35.6v-4.2c0,0,0-0.1,0-0.1s0.1,0,0.1,0h1.8c0.4,0,0.7,0.1,1,0.4
			c0.3,0.3,0.4,0.6,0.4,1c0,0.3-0.1,0.5-0.3,0.8c-0.2,0.2-0.4,0.4-0.7,0.5l0.9,1.6c0,0,0,0.1,0,0.1c0,0-0.1,0.1-0.1,0.1h-0.7
			c0,0-0.1,0-0.1-0.1l-0.8-1.7h-0.7v1.6c0,0,0,0.1,0,0.1c0,0-0.1,0-0.1,0h-0.6C151.8,35.7,151.8,35.7,151.7,35.6
			C151.7,35.7,151.7,35.7,151.7,35.6z M152.5,33.3h1c0.2,0,0.3-0.1,0.4-0.2c0.1-0.1,0.2-0.3,0.2-0.5c0-0.2-0.1-0.3-0.2-0.4
			s-0.3-0.2-0.4-0.2h-1V33.3z"/>
		<path id="XMLID_88_" fill="#312783" d="M155.9,35.6v-4.2c0,0,0-0.1,0-0.1c0,0,0.1,0,0.1,0h0.6c0,0,0.1,0,0.1,0c0,0,0,0.1,0,0.1
			v4.2c0,0,0,0.1,0,0.1c0,0-0.1,0-0.1,0H156C156,35.7,156,35.7,155.9,35.6C155.9,35.7,155.9,35.7,155.9,35.6z"/>
		<path id="XMLID_90_" fill="#312783" d="M157.4,35.7c0,0-0.1,0-0.1-0.1c0,0,0-0.1,0-0.1l2-4.3c0,0,0.1-0.1,0.1-0.1h0.1
			c0.1,0,0.1,0,0.1,0.1l2,4.3c0,0,0,0.1,0,0.1c0,0-0.1,0.1-0.1,0.1h-0.6c-0.1,0-0.1,0-0.2-0.1l-0.3-0.7h-1.9l-0.3,0.7
			c0,0.1-0.1,0.1-0.2,0.1H157.4z M158.8,34.2h1.3l-0.6-1.4h0L158.8,34.2z"/>
		<path id="XMLID_93_" fill="#312783" d="M162.1,35.6v-4.3c0,0,0-0.1,0-0.1c0,0,0.1,0,0.1,0h0.2l2.6,2.8h0v-2.6c0,0,0-0.1,0-0.1
			s0.1,0,0.1,0h0.6c0,0,0.1,0,0.1,0c0,0,0,0.1,0,0.1v4.3c0,0,0,0.1,0,0.1c0,0-0.1,0-0.1,0h-0.2l-2.6-2.9h0v2.7c0,0,0,0.1,0,0.1
			c0,0-0.1,0-0.1,0h-0.6C162.2,35.7,162.2,35.7,162.1,35.6C162.1,35.7,162.1,35.7,162.1,35.6z"/>
		<path id="XMLID_95_" fill="#312783" d="M166.5,35.7c0,0-0.1,0-0.1-0.1c0,0,0-0.1,0-0.1l2-4.3c0,0,0.1-0.1,0.1-0.1h0.1
			c0.1,0,0.1,0,0.1,0.1l2,4.3c0,0,0,0.1,0,0.1c0,0-0.1,0.1-0.1,0.1H170c-0.1,0-0.1,0-0.2-0.1l-0.3-0.7h-1.9l-0.3,0.7
			c0,0.1-0.1,0.1-0.2,0.1H166.5z M167.9,34.2h1.3l-0.6-1.4h0L167.9,34.2z"/>
		<path id="XMLID_98_" fill="#312783" d="M125.6,43.2v-3.6h-1c0,0-0.1,0-0.1,0c0,0,0-0.1,0-0.1V39c0,0,0-0.1,0-0.1s0.1,0,0.1,0h2.8
			c0,0,0.1,0,0.1,0s0,0.1,0,0.1v0.5c0,0,0,0.1,0,0.1c0,0-0.1,0-0.1,0h-1v3.6c0,0,0,0.1,0,0.1c0,0-0.1,0-0.1,0h-0.6
			C125.6,43.3,125.6,43.3,125.6,43.2C125.6,43.3,125.6,43.3,125.6,43.2z"/>
		<path id="XMLID_100_" fill="#312783" d="M128.1,43.2V39c0,0,0-0.1,0-0.1s0.1,0,0.1,0h1.8c0.4,0,0.7,0.1,1,0.4
			c0.3,0.3,0.4,0.6,0.4,1c0,0.3-0.1,0.5-0.3,0.8c-0.2,0.2-0.4,0.4-0.7,0.5l0.9,1.6c0,0,0,0.1,0,0.1c0,0-0.1,0.1-0.1,0.1h-0.7
			c0,0-0.1,0-0.1-0.1l-0.8-1.7H129v1.6c0,0,0,0.1,0,0.1c0,0-0.1,0-0.1,0h-0.6C128.2,43.3,128.2,43.3,128.1,43.2
			C128.1,43.3,128.1,43.3,128.1,43.2z M129,40.9h1c0.2,0,0.3-0.1,0.4-0.2c0.1-0.1,0.2-0.3,0.2-0.5c0-0.2-0.1-0.3-0.2-0.4
			c-0.1-0.1-0.3-0.2-0.4-0.2h-1V40.9z"/>
		<path id="XMLID_103_" fill="#312783" d="M131.9,43.3c0,0-0.1,0-0.1-0.1c0,0,0-0.1,0-0.1l2-4.3c0,0,0.1-0.1,0.1-0.1h0.1
			c0.1,0,0.1,0,0.1,0.1l2,4.3c0,0,0,0.1,0,0.1c0,0-0.1,0.1-0.1,0.1h-0.6c-0.1,0-0.1,0-0.2-0.1l-0.3-0.7h-1.9l-0.3,0.7
			c0,0.1-0.1,0.1-0.2,0.1H131.9z M133.2,41.8h1.3l-0.6-1.4h0L133.2,41.8z"/>
		<path id="XMLID_106_" fill="#312783" d="M136.5,43.2V39c0,0,0-0.1,0-0.1c0,0,0.1,0,0.1,0h0.2l2.6,2.8h0V39c0,0,0-0.1,0-0.1
			s0.1,0,0.1,0h0.6c0,0,0.1,0,0.1,0c0,0,0,0.1,0,0.1v4.3c0,0,0,0.1,0,0.1c0,0-0.1,0-0.1,0H140l-2.6-2.9h0v2.7c0,0,0,0.1,0,0.1
			c0,0-0.1,0-0.1,0h-0.6C136.6,43.3,136.6,43.3,136.5,43.2C136.6,43.3,136.5,43.3,136.5,43.2z"/>
		<path id="XMLID_108_" fill="#312783" d="M141.2,42.9c-0.1-0.1-0.1-0.1,0-0.2l0.2-0.4c0,0,0.1-0.1,0.1-0.1c0,0,0.1,0,0.1,0l0,0
			c0,0,0,0,0.1,0.1s0.1,0,0.1,0.1c0,0,0.1,0,0.1,0.1c0,0,0.1,0,0.1,0.1s0.1,0,0.2,0.1c0.1,0,0.1,0,0.2,0c0.1,0,0.1,0,0.2,0
			c0.2,0,0.3,0,0.4-0.1c0.1-0.1,0.2-0.2,0.2-0.3c0-0.2-0.1-0.3-0.2-0.4c-0.1-0.1-0.3-0.2-0.6-0.3c-0.4-0.1-0.6-0.3-0.9-0.5
			c-0.2-0.2-0.3-0.5-0.3-0.8c0-0.3,0.1-0.6,0.4-0.8s0.6-0.4,1.1-0.4c0.5,0,0.9,0.1,1.3,0.4c0,0,0,0,0.1,0.1c0,0,0,0.1,0,0.1
			l-0.2,0.4c-0.1,0.1-0.1,0.1-0.2,0.1c-0.4-0.2-0.7-0.3-0.9-0.3c-0.2,0-0.3,0-0.4,0.1c-0.1,0.1-0.2,0.2-0.2,0.3
			c0,0.1,0.1,0.3,0.2,0.4c0.1,0.1,0.3,0.2,0.6,0.3c0.2,0.1,0.3,0.1,0.5,0.2c0.1,0.1,0.3,0.2,0.4,0.3c0.1,0.1,0.3,0.2,0.3,0.4
			c0.1,0.2,0.1,0.3,0.1,0.5c0,0.3-0.1,0.6-0.4,0.9c-0.3,0.2-0.6,0.4-1.1,0.4c-0.2,0-0.5,0-0.7-0.1c-0.2-0.1-0.4-0.1-0.5-0.2
			C141.4,43,141.3,43,141.2,42.9z"/>
		<path id="XMLID_110_" fill="#312783" d="M144.9,43.2V39c0,0,0-0.1,0-0.1c0,0,0.1,0,0.1,0h0.6c0,0,0.1,0,0.1,0s0,0.1,0,0.1v1.7h2.1
			V39c0,0,0-0.1,0-0.1c0,0,0.1,0,0.1,0h0.6c0,0,0.1,0,0.1,0c0,0,0,0.1,0,0.1v4.2c0,0,0,0.1,0,0.1c0,0-0.1,0-0.1,0h-0.6
			c0,0-0.1,0-0.1,0c0,0,0-0.1,0-0.1v-1.7h-2.1v1.7c0,0,0,0.1,0,0.1c0,0-0.1,0-0.1,0H145C145,43.3,144.9,43.3,144.9,43.2
			C144.9,43.3,144.9,43.3,144.9,43.2z"/>
		<path id="XMLID_112_" fill="#312783" d="M149.7,43.2V39c0,0,0-0.1,0-0.1s0.1,0,0.1,0h2.6c0,0,0.1,0,0.1,0c0,0,0,0.1,0,0.1v0.5
			c0,0,0,0.1,0,0.1c0,0-0.1,0-0.1,0h-1.9v1h1.6c0,0,0.1,0,0.1,0c0,0,0,0.1,0,0.1v0.5c0,0,0,0.1,0,0.1c0,0-0.1,0-0.1,0h-1.6v1.1h1.9
			c0,0,0.1,0,0.1,0c0,0,0,0.1,0,0.1v0.5c0,0,0,0.1,0,0.1c0,0-0.1,0-0.1,0h-2.6C149.8,43.3,149.8,43.3,149.7,43.2
			C149.8,43.3,149.7,43.3,149.7,43.2z"/>
		<path id="XMLID_114_" fill="#312783" d="M153.5,43.2V39c0,0,0-0.1,0-0.1s0.1,0,0.1,0h1.8c0.4,0,0.7,0.1,1,0.4
			c0.3,0.3,0.4,0.6,0.4,1c0,0.3-0.1,0.5-0.3,0.8c-0.2,0.2-0.4,0.4-0.7,0.5l0.9,1.6c0,0,0,0.1,0,0.1c0,0-0.1,0.1-0.1,0.1h-0.7
			c0,0-0.1,0-0.1-0.1l-0.8-1.7h-0.7v1.6c0,0,0,0.1,0,0.1c0,0-0.1,0-0.1,0h-0.6C153.6,43.3,153.5,43.3,153.5,43.2
			C153.5,43.3,153.5,43.3,153.5,43.2z M154.3,40.9h1c0.2,0,0.3-0.1,0.4-0.2c0.1-0.1,0.2-0.3,0.2-0.5c0-0.2-0.1-0.3-0.2-0.4
			s-0.3-0.2-0.4-0.2h-1V40.9z"/>
		<path id="XMLID_117_" fill="#312783" d="M158,42.8c-0.4-0.4-0.7-1-0.7-1.6c0-0.6,0.2-1.2,0.7-1.6c0.4-0.4,1-0.7,1.6-0.7
			c0.6,0,1.2,0.2,1.6,0.7c0.4,0.4,0.7,1,0.7,1.6c0,0.6-0.2,1.2-0.7,1.6c-0.4,0.4-1,0.7-1.6,0.7C159,43.4,158.5,43.2,158,42.8z
			 M158.6,40.1c-0.3,0.3-0.4,0.6-0.4,1c0,0.4,0.1,0.7,0.4,1c0.3,0.3,0.6,0.4,1,0.4c0.4,0,0.7-0.1,1-0.4c0.3-0.3,0.4-0.6,0.4-1
			c0-0.4-0.1-0.7-0.4-1c-0.3-0.3-0.6-0.4-1-0.4C159.2,39.7,158.9,39.8,158.6,40.1z"/>
		<path id="XMLID_142_" fill="#312783" d="M162.8,43.2V39c0,0,0-0.1,0-0.1c0,0,0.1,0,0.1,0h0.6c0,0,0.1,0,0.1,0c0,0,0,0.1,0,0.1v4.2
			c0,0,0,0.1,0,0.1c0,0-0.1,0-0.1,0h-0.6C162.8,43.3,162.8,43.3,162.8,43.2C162.8,43.3,162.8,43.3,162.8,43.2z"/>
		<path id="XMLID_144_" fill="#312783" d="M165.1,42.8c-0.4-0.4-0.7-1-0.7-1.6c0-0.6,0.2-1.2,0.7-1.6c0.4-0.4,1-0.7,1.6-0.7
			c0.6,0,1.1,0.2,1.5,0.6c0.1,0.1,0.1,0.1,0,0.2l-0.4,0.4c-0.1,0.1-0.1,0.1-0.2,0c-0.3-0.2-0.6-0.4-1-0.4c-0.4,0-0.7,0.1-1,0.4
			c-0.3,0.3-0.4,0.6-0.4,1c0,0.4,0.1,0.7,0.4,1c0.3,0.3,0.6,0.4,1,0.4c0.4,0,0.7-0.1,1-0.4c0.1-0.1,0.1-0.1,0.2,0l0.4,0.4
			c0,0,0,0.1,0,0.1c0,0,0,0.1,0,0.1c-0.4,0.4-0.9,0.6-1.5,0.6C166.1,43.4,165.5,43.2,165.1,42.8z"/>
		<path id="XMLID_146_" fill="#312783" d="M168.6,43.3c0,0-0.1,0-0.1-0.1c0,0,0-0.1,0-0.1l2-4.3c0,0,0.1-0.1,0.1-0.1h0.1
			c0.1,0,0.1,0,0.1,0.1l2,4.3c0,0,0,0.1,0,0.1c0,0-0.1,0.1-0.1,0.1H172c-0.1,0-0.1,0-0.2-0.1l-0.3-0.7h-1.9l-0.3,0.7
			c0,0.1-0.1,0.1-0.2,0.1H168.6z M170,41.8h1.3l-0.6-1.4h0L170,41.8z"/>
		<path id="XMLID_150_" fill="#312783" d="M143.6,50.5c-0.1-0.1-0.1-0.1,0-0.2l0.2-0.4c0,0,0.1-0.1,0.1-0.1c0,0,0.1,0,0.1,0l0,0
			c0,0,0,0,0.1,0.1s0.1,0,0.1,0.1c0,0,0.1,0,0.1,0.1c0,0,0.1,0,0.1,0.1s0.1,0,0.2,0.1c0.1,0,0.1,0,0.2,0c0.1,0,0.1,0,0.2,0
			c0.2,0,0.3,0,0.4-0.1c0.1-0.1,0.2-0.2,0.2-0.3c0-0.2-0.1-0.3-0.2-0.4c-0.1-0.1-0.3-0.2-0.6-0.3c-0.4-0.1-0.6-0.3-0.9-0.5
			c-0.2-0.2-0.3-0.5-0.3-0.8c0-0.3,0.1-0.6,0.4-0.8c0.2-0.2,0.6-0.4,1.1-0.4c0.5,0,0.9,0.1,1.3,0.4c0,0,0,0,0.1,0.1c0,0,0,0.1,0,0.1
			l-0.2,0.4c-0.1,0.1-0.1,0.1-0.2,0.1c-0.4-0.2-0.7-0.3-0.9-0.3c-0.2,0-0.3,0-0.4,0.1c-0.1,0.1-0.2,0.2-0.2,0.3
			c0,0.1,0.1,0.3,0.2,0.4c0.1,0.1,0.3,0.2,0.6,0.3c0.2,0.1,0.3,0.1,0.5,0.2c0.1,0.1,0.3,0.2,0.4,0.3c0.1,0.1,0.3,0.2,0.3,0.4
			c0.1,0.2,0.1,0.3,0.1,0.5c0,0.3-0.1,0.6-0.4,0.9S145.4,51,145,51c-0.2,0-0.5,0-0.7-0.1c-0.2-0.1-0.4-0.1-0.5-0.2
			C143.7,50.6,143.6,50.6,143.6,50.5z"/>
		<path id="XMLID_152_" fill="#312783" d="M147,50.9c-0.1-0.1-0.2-0.2-0.2-0.4c0-0.1,0.1-0.3,0.2-0.4c0.1-0.1,0.2-0.2,0.4-0.2
			c0.1,0,0.3,0.1,0.4,0.2c0.1,0.1,0.2,0.2,0.2,0.4c0,0.1-0.1,0.3-0.2,0.4c-0.1,0.1-0.2,0.2-0.4,0.2C147.3,51,147.1,51,147,50.9z"/>
		<path id="XMLID_154_" fill="#312783" d="M148.3,50.9c0,0-0.1,0-0.1-0.1c0,0,0-0.1,0-0.1l2-4.3c0,0,0.1-0.1,0.1-0.1h0.1
			c0.1,0,0.1,0,0.1,0.1l2,4.3c0,0,0,0.1,0,0.1c0,0-0.1,0.1-0.1,0.1h-0.6c-0.1,0-0.1,0-0.2-0.1l-0.3-0.7h-1.9l-0.3,0.7
			c0,0.1-0.1,0.1-0.2,0.1H148.3z M149.6,49.4h1.3l-0.6-1.4h0L149.6,49.4z"/>
		<path id="XMLID_157_" fill="#312783" d="M152.7,50.9c-0.1-0.1-0.2-0.2-0.2-0.4c0-0.1,0.1-0.3,0.2-0.4c0.1-0.1,0.2-0.2,0.4-0.2
			c0.1,0,0.3,0.1,0.4,0.2c0.1,0.1,0.2,0.2,0.2,0.4c0,0.1-0.1,0.3-0.2,0.4c-0.1,0.1-0.2,0.2-0.4,0.2C152.9,51,152.8,51,152.7,50.9z"
			/>
	</g>
</g>
</svg>
